<svg width="300px" height="88px" xmlns="http://www.w3.org/2000/svg" viewBox="0 0 129.63 38"><title>elvant-logo4</title><path d="M19.2,1.22c-1-.6-1.8-1-1.8-1a2,2,0,0,0-1.8,0L1,8.92a2.05,2.05,0,0,0-1,1.4C0,11,.1,28,0.1,28a1.29,1.29,0,0,0,.6,1c0.5,0.4,15.4,8.8,15.4,8.8a1.61,1.61,0,0,0,1.5,0c0.6-.4,7.4-4.4,11.5-6.8a1.23,1.23,0,0,0,.4-1.6l-0.7-1.1a1.23,1.23,0,0,0-1.6-.4c-9.2,5.4-9.3,5.5-10,5.9a1.38,1.38,0,0,1-1.2,0s-11.6-6.7-12-7A1.08,1.08,0,0,1,3.6,26s-0.1-13.2-.1-13.8a1.7,1.7,0,0,1,.8-1.1l11.6-6.8a1.5,1.5,0,0,1,1.4,0l0.2,0.1a1.88,1.88,0,0,0,2.4-.5h0A2,2,0,0,0,19.2,1.22Z" transform="translate(0 -0.01)" fill="#34a2f6"/><path d="M33.33,10.14A2.1,2.1,0,0,0,32.13,8c-0.6-.3-3.4-1.9-6.3-3.6a1.79,1.79,0,0,0-2.51.36l-0.09.14c-1,1.6-.2,2.1.6,2.6,1,0.6,2.4,1.4,3,1.8a0.38,0.38,0,0,1,0,.7l-9.4,5.7h0a2.21,2.21,0,0,0-.8,1.8v2.2a0.63,0.63,0,0,0,.9.5l11.4-6.9a0.59,0.59,0,0,1,.9.5v2.1a2.38,2.38,0,0,1-.5,1.4c0,0.1-.1.1-0.2,0.1l-11.5,6.9a2.9,2.9,0,0,0-1,2.1v2a0.63,0.63,0,0,0,.9.5l11.3-7a0.59,0.59,0,0,1,.9.5v1.7a1.63,1.63,0,0,0,1.1,1.5l0.3,0.1a1.1,1.1,0,0,0,.8,0l0.9-.3a0.66,0.66,0,0,0,.4-0.5C33.23,19.84,33.33,10.14,33.33,10.14Z" transform="translate(0 -0.01)" fill="#34a2f6"/><path d="M54.7,28.71a0.87,0.87,0,0,0-.8-0.4H45a1,1,0,0,1-.7-0.8v-4.8h8a1,1,0,0,0,.8-0.4,18.85,18.85,0,0,0,1-1.9s0.3-.7-0.3-0.7H44.3V15.17a0.72,0.72,0,0,1,.74-0.7H53.5a1,1,0,0,0,.8-0.6c0.3-.6.7-1.7,0.7-1.7s0.3-.8-0.4-0.8H41.7a1,1,0,0,0-.7,1v18.2a1.21,1.21,0,0,0,.8.8H55.7s0.5-.1.1-0.7A21.89,21.89,0,0,0,54.7,28.71Z" transform="translate(0 -0.01)" fill="#34a2f6"/><path d="M66.9,28.87a1.09,1.09,0,0,0-1.2-.7H63.5a2.5,2.5,0,0,1-1.9-1.7h0V12.07a0.78,0.78,0,0,0-.76-0.8H58.3v16.1a4.35,4.35,0,0,0,4.1,4h5.2c0.5,0,.4-0.6.4-0.6S67.4,29.77,66.9,28.87Z" transform="translate(0 -0.01)" fill="#34a2f6"/><path d="M99.33,24.39q0-.88,0-2.15V19a2.61,2.61,0,0,0-2.22-2.31l-2-.06H90.56a3,3,0,0,0-1.49.35,3.14,3.14,0,0,0-1.14,1.11c-0.16.26-.32,0.49-0.45,0.66a3.82,3.82,0,0,0-.22.33,0.37,0.37,0,0,0,0,.37l0.33,0.23,2.82,0.41a2,2,0,0,1,.43-0.48,5.42,5.42,0,0,1,2.28-.4,3.38,3.38,0,0,1,2.38.55,2.54,2.54,0,0,1,.25,1.42,1.08,1.08,0,0,1-.8,1l-1.26.32L91.36,23l-1.7.36a4.55,4.55,0,0,0-1.12.45,3,3,0,0,0-1.46,1.77,11,11,0,0,0-.18,1.15v0.51s0.1,1.14.14,1.3,0.17,0.53.27,0.81a2.46,2.46,0,0,0,1,1.26,4.73,4.73,0,0,0,1.1.52,5.77,5.77,0,0,0,1.31.21,7.06,7.06,0,0,0,2.74-.51,10.07,10.07,0,0,0,1.76-1,1.65,1.65,0,0,1,.56-0.16v1.45h2.51a1,1,0,0,0,1-1v-3.8C99.29,25.67,99.32,25,99.33,24.39Zm-3.53.24a5.5,5.5,0,0,1-.49,2.69A3.12,3.12,0,0,1,94,28.52,4.22,4.22,0,0,1,92,29a2.3,2.3,0,0,1-1.62-.57A1.83,1.83,0,0,1,89.76,27a1.52,1.52,0,0,1,.53-1.23,2.84,2.84,0,0,1,1.11-.59q0.58-.15,2.09-0.47a18.23,18.23,0,0,0,2.3-.61v0.51h0Z" transform="translate(0 -0.01)" fill="#34a2f6"/><path d="M115.2,16.77h-9.6a1.38,1.38,0,0,0-1.2,1.2v12.8s-0.1.6,0.4,0.6H107a0.39,0.39,0,0,0,.4-0.38s0,0,0,0V20.57a0.76,0.76,0,0,1,.7-0.8h4.5a1,1,0,0,1,.8.8v10.2s0,0.6.4,0.6H116s0.4,0,.4-0.7V18A1.38,1.38,0,0,0,115.2,16.77Z" transform="translate(0 -0.01)" fill="#34a2f6"/><path d="M129.5,30.92c-0.3-.5-1.4-2.5-1.4-2.5a0.64,0.64,0,0,0-.7-0.4h-0.8a2.22,2.22,0,0,1-1.9-2.1v-6.1h4v-2.6a0.51,0.51,0,0,0-.4-0.4h-3.6v-3.6c0-.3-0.1-0.2-0.1-0.2a0.4,0.4,0,0,0-.5-0.1c-0.8.2-2.3,0.7-2.3,0.7a0.58,0.58,0,0,0-.4.6v2.6h-2.1a0.51,0.51,0,0,0-.4.4v2.6h2.5v7h0a5,5,0,0,0,4.5,4.5h3.5C129.5,31.42,129.8,31.42,129.5,30.92Z" transform="translate(0 -0.01)" fill="#34a2f6"/><path d="M19.2,1.22c-1-.6-1.8-1-1.8-1a2,2,0,0,0-1.8,0L1,8.92a2.05,2.05,0,0,0-1,1.4C0,11,.1,28,0.1,28a1.29,1.29,0,0,0,.6,1c0.5,0.4,15.4,8.8,15.4,8.8a1.61,1.61,0,0,0,1.5,0c0.6-.4,7.4-4.4,11.5-6.8a1.23,1.23,0,0,0,.4-1.6l-0.7-1.1a1.23,1.23,0,0,0-1.6-.4c-9.2,5.4-9.3,5.5-10,5.9a1.38,1.38,0,0,1-1.2,0s-11.6-6.7-12-7A1.08,1.08,0,0,1,3.6,26s-0.1-13.2-.1-13.8a1.7,1.7,0,0,1,.8-1.1l11.6-6.8a1.5,1.5,0,0,1,1.4,0l0.2,0.1a1.88,1.88,0,0,0,2.4-.5h0A2,2,0,0,0,19.2,1.22Z" transform="translate(0 -0.01)" fill="#409eff"/><path d="M33.33,10.14A2.1,2.1,0,0,0,32.13,8c-0.6-.3-3.4-1.9-6.3-3.6a1.79,1.79,0,0,0-2.51.36l-0.09.14c-1,1.6-.2,2.1.6,2.6,1,0.6,2.4,1.4,3,1.8a0.38,0.38,0,0,1,0,.7l-9.4,5.7h0a2.21,2.21,0,0,0-.8,1.8v2.2a0.63,0.63,0,0,0,.9.5l11.4-6.9a0.59,0.59,0,0,1,.9.5v2.1a2.38,2.38,0,0,1-.5,1.4c0,0.1-.1.1-0.2,0.1l-11.5,6.9a2.9,2.9,0,0,0-1,2.1v2a0.63,0.63,0,0,0,.9.5l11.3-7a0.59,0.59,0,0,1,.9.5v1.7a1.63,1.63,0,0,0,1.1,1.5l0.3,0.1a1.1,1.1,0,0,0,.8,0l0.9-.3a0.66,0.66,0,0,0,.4-0.5C33.23,19.84,33.33,10.14,33.33,10.14Z" transform="translate(0 -0.01)" fill="#ff4252"/><path d="M54.7,28.71a0.87,0.87,0,0,0-.8-0.4H45a1,1,0,0,1-.7-0.8v-4.8h8a1,1,0,0,0,.8-0.4,18.85,18.85,0,0,0,1-1.9s0.3-.7-0.3-0.7H44.3V15.17a0.72,0.72,0,0,1,.74-0.7H53.5a1,1,0,0,0,.8-0.6c0.3-.6.7-1.7,0.7-1.7s0.3-.8-0.4-0.8H41.7a1,1,0,0,0-.7,1v18.2a1.21,1.21,0,0,0,.8.8H55.7s0.5-.1.1-0.7A21.89,21.89,0,0,0,54.7,28.71Z" transform="translate(0 -0.01)" fill="#409eff"/><path d="M66.9,28.87a1.09,1.09,0,0,0-1.2-.7H63.5a2.5,2.5,0,0,1-1.9-1.7h0V12.07a0.78,0.78,0,0,0-.76-0.8H58.3v16.1a4.35,4.35,0,0,0,4.1,4h5.2c0.5,0,.4-0.6.4-0.6S67.4,29.77,66.9,28.87Z" transform="translate(0 -0.01)" fill="#409eff"/><path d="M74,18.94l2.6,7.23a0.36,0.36,0,0,0,.67,0l2.86-7.54c0.2-.52.27-0.64,0.8-1.8a0.14,0.14,0,0,1,0,0h1.93a0.93,0.93,0,0,1,.86,1.25L83.3,19.36,83.06,20l-3.45,8.57c-0.1.25-.23,0.55-0.38,0.94a6.14,6.14,0,0,1-.34.74,2,2,0,0,1-2,1.11,1.71,1.71,0,0,1-1.83-1.15q-0.22-.42-0.73-1.64l-3.39-8.45c-0.05-.14-0.39-1-0.72-1.91a1,1,0,0,1,.94-1.36h2a0,0,0,0,1,0,0C73.43,17.43,73.78,18.3,74,18.94Z" transform="translate(0 -0.01)" fill="#34a2f6"/><path d="M99.33,24.39q0-.88,0-2.15V19a2.7,2.7,0,0,0-2.25-2.37H90.56a3.06,3.06,0,0,0-1.49.36,3.14,3.14,0,0,0-1.14,1.11l-0.45.66a3.82,3.82,0,0,0-.22.33,0.37,0.37,0,0,0,0,.37l0.33,0.23,2.82,0.41a2,2,0,0,1,.43-0.48,5.42,5.42,0,0,1,2.28-.4,3.38,3.38,0,0,1,2.38.55,2.54,2.54,0,0,1,.25,1.42,1.08,1.08,0,0,1-.8,1l-1.26.32L91.36,23l-1.7.36a4.55,4.55,0,0,0-1.12.45,3,3,0,0,0-1.46,1.77,11,11,0,0,0-.18,1.15v0.51s0.1,1.14.14,1.3,0.17,0.53.27,0.81a2.46,2.46,0,0,0,1,1.26,4.73,4.73,0,0,0,1.1.52,5.77,5.77,0,0,0,1.31.21,7.06,7.06,0,0,0,2.74-.51,10.07,10.07,0,0,0,1.76-1,1.65,1.65,0,0,1,.56-0.16v1.45h2.51a1,1,0,0,0,1-1v-3.8C99.29,25.67,99.32,25,99.33,24.39Zm-3.53.24a5.5,5.5,0,0,1-.49,2.69A3.12,3.12,0,0,1,94,28.52,4.22,4.22,0,0,1,92,29a2.3,2.3,0,0,1-1.62-.57A1.83,1.83,0,0,1,89.76,27a1.52,1.52,0,0,1,.53-1.23,2.84,2.84,0,0,1,1.11-.59q0.58-.15,2.09-0.47a18.23,18.23,0,0,0,2.3-.61v0.51h0Z" transform="translate(0 -0.01)" fill="#34a2f6"/><path d="M115.2,16.77h-9.6a1.38,1.38,0,0,0-1.2,1.2v12.8s-0.1.6,0.4,0.6H107a0.39,0.39,0,0,0,.4-0.38s0,0,0,0V20.57a0.76,0.76,0,0,1,.7-0.8h4.5a1,1,0,0,1,.8.8v10.2s0,0.6.4,0.6H116s0.4,0,.4-0.7V18A1.38,1.38,0,0,0,115.2,16.77Z" transform="translate(0 -0.01)" fill="#409eff"/><path d="M129.5,30.92c-0.3-.5-1.4-2.5-1.4-2.5a0.64,0.64,0,0,0-.7-0.4h-0.8a2.22,2.22,0,0,1-1.9-2.1v-6.1h4v-2.6a0.51,0.51,0,0,0-.4-0.4h-3.6v-3.6c0-.3-0.1-0.2-0.1-0.2a0.4,0.4,0,0,0-.5-0.1c-0.8.2-2.3,0.7-2.3,0.7a0.58,0.58,0,0,0-.4.6v2.6h-2.1a0.51,0.51,0,0,0-.4.4v2.6h2.5v7h0a5,5,0,0,0,4.5,4.5h3.5C129.5,31.42,129.8,31.42,129.5,30.92Z" transform="translate(0 -0.01)" fill="#34a2f6"/></svg>