<?xml version="1.0" encoding="utf-8"?>
<!-- Generator: Adobe Illustrator 19.2.1, SVG Export Plug-In . SVG Version: 6.00 Build 0)  -->
<svg version="1.0" id="图层_1" xmlns="http://www.w3.org/2000/svg" xmlns:xlink="http://www.w3.org/1999/xlink" x="0px" y="0px"
	 viewBox="0 0 146 38" style="enable-background:new 0 0 146 38;" xml:space="preserve">
<style type="text/css">
	.st0{fill:#409EFF;}
	.st1{fill:url(#Shape_3_);}
	.st2{fill:url(#Shape_4_);}
	.st3{fill:url(#Shape_5_);}
	.st4{fill:url(#Combined-Shape_1_);}
</style>
<title>Shape Copy</title>
<desc>Created with Sketch.</desc>
<g id="v2.2.0">
	<g id="首页-默认效果-copy-2" transform="translate(-70.000000, -19.000000)">
		<path id="Shape-Copy" class="st0" d="M212.1,45.2c0,0,0.3,0,0.8,0s0.7,0.4,0.7,0.4s1.1,2,1.4,2.5c0.3,0.4-0.1,0.4-0.1,0.4
			c0,0,0,0,0,0s0,0,0,0c0,0-0.3,0-3.5,0c-4.4-0.6-4.5-4.5-4.5-4.5v-7h-2.5v-2.6c0-0.4,0.4-0.4,0.4-0.4h2.1v-2.6
			c0-0.4,0.4-0.6,0.4-0.6s1.5-0.4,2.3-0.7c0.3-0.1,0.5,0.1,0.5,0.1s0.1-0.1,0.1,0.2V34h3.6c0.3,0,0.4,0.4,0.4,0.4V37h-4v6.1
			C210.2,44.9,212.1,45.2,212.1,45.2L212.1,45.2z M201.5,48.2h-2.2c-0.4,0-0.4-0.6-0.4-0.6V37.4c0-0.6-0.8-0.8-0.8-0.8h-4.5
			c-0.7,0-0.7,0.8-0.7,0.8v10.3c0,0.4-0.4,0.4-0.4,0.4h-2.2c-0.5,0-0.4-0.6-0.4-0.6V34.8c0-1,1.2-1.2,1.2-1.2h9.6
			c1,0,1.2,1.2,1.2,1.2v12.7C202,48.2,201.5,48.2,201.5,48.2L201.5,48.2z M185.9,42.4h-8.5v2.1c0,0.7,1,1,1,1h6.9
			c0.5,0,0.8,0.4,0.8,0.4s0.6,1.2,0.8,1.8c0.2,0.5-0.4,0.6-0.4,0.6h-10.3c-1.2,0-1.5-1.5-1.5-1.5V35c0-0.7,1-1,1-1h10.3
			c1,0,1.2,1.2,1.2,1.2v5.9C187.1,42.2,185.9,42.4,185.9,42.4L185.9,42.4z M184.3,37.4c0,0-0.1-0.7-0.7-0.7H178c0,0-0.7,0.2-0.7,0.7
			V39c0,0,0,0.7,0.7,0.7h5.6c0,0,0.7-0.2,0.7-0.8V37.4L184.3,37.4z M171.4,48.2h-2.2c-0.3,0-0.4-0.4-0.4-0.4V37.4
			c0-0.6-0.8-0.8-0.8-0.8h-2.1c-0.6,0-0.7,0.8-0.7,0.8v10.3c0,0.3-0.4,0.4-0.4,0.4h-2.2c-0.3,0-0.4-0.4-0.4-0.4V37.4
			c0-0.7-0.8-0.8-0.8-0.8h-2.1c-0.6,0-0.7,0.8-0.7,0.8v10.3c0,0.4-0.4,0.4-0.4,0.4H156c-0.4,0-0.4-0.4-0.4-0.4V34.7
			c0-0.8,1.1-1.1,1.1-1.1h13.8c1.1,0,1.4,1.4,1.4,1.4v12.8C171.8,48.2,171.4,48.2,171.4,48.2L171.4,48.2z M151.5,42.4h-8.5v2.1
			c0,0.7,1,1,1,1h6.9c0.5,0,0.8,0.4,0.8,0.4s0.6,1.2,0.8,1.8c0.2,0.5-0.4,0.6-0.4,0.6h-10.3c-1.2,0-1.5-1.5-1.5-1.5V35
			c0-0.7,1-1,1-1h10.3c1,0,1.2,1.2,1.2,1.2v5.9C152.7,42.2,151.5,42.4,151.5,42.4L151.5,42.4z M149.9,37.4c0,0-0.1-0.7-0.7-0.7h-5.6
			c0,0-0.7,0.2-0.7,0.7V39c0,0,0,0.7,0.7,0.7h5.6c0,0,0.7-0.2,0.7-0.8V37.4L149.9,37.4z M138.1,48.2h-5.2c0,0-3.8-0.2-4.1-4
			c0-3.9,0-16.1,0-16.1h2.5c0,0,0.8,0,0.8,0.8v14.5c0,0,0.3,1.2,1.9,1.7c1.9,0,2.2,0,2.2,0s0.7-0.2,1.2,0.7s1.1,1.9,1.1,1.9
			S138.6,48.2,138.1,48.2L138.1,48.2z M111.6,47.4V29.2c0-0.8,0.7-1,0.7-1h12.9c0.7,0,0.4,0.8,0.4,0.8s-0.4,1.1-0.7,1.7
			c-0.3,0.5-0.8,0.6-0.8,0.6h-8.4c-0.8,0-0.8,0.7-0.8,0.7v4.5h9.5c0.6,0,0.3,0.7,0.3,0.7s-0.7,1.5-1,1.9c-0.3,0.4-0.8,0.4-0.8,0.4
			h-8v4.8c0,0.7,0.7,0.8,0.7,0.8h8.8c0.6,0,0.8,0.4,0.8,0.4s0.9,1.4,1.2,1.9c0.4,0.6-0.1,0.7-0.1,0.7h-13.9
			C111.8,48.2,111.6,47.4,111.6,47.4z"/>
		<g id="Group-27-Copy-3">
			<g id="Group-25">
				<g id="_x32_">
					
						<linearGradient id="Shape_3_" gradientUnits="userSpaceOnUse" x1="-160.3445" y1="433.0529" x2="-160.2677" y2="432.9898" gradientTransform="matrix(147.7263 0 0 -198.7057 23770.3145 86080.6328)">
						<stop  offset="0" style="stop-color:#4285EB"/>
						<stop  offset="1" style="stop-color:#2EC7FF"/>
					</linearGradient>
					<path id="Shape" class="st1" d="M88.8,21.8L74.2,36.4c-0.8,0.8-0.8,2,0,2.8l14.6,14.5c0.8,0.8,2,0.8,2.8,0l6.1-6.1
						c0.7-0.7,0.7-1.8,0-2.5c-0.7-0.7-1.8-0.7-2.5,0l-4.6,4.6c-0.2,0.2-0.5,0.2-0.7,0L78.2,38.1c-0.2-0.2-0.2-0.5,0-0.7l11.6-11.6
						c0.2-0.2,0.5-0.2,0.7,0l4.6,4.6c0.7,0.7,1.8,0.7,2.5,0c0.7-0.7,0.7-1.8,0-2.5l-6.1-6.1C90.8,21,89.5,21.1,88.8,21.8z"/>
					
						<linearGradient id="Shape_4_" gradientUnits="userSpaceOnUse" x1="-160.3108" y1="433.1022" x2="-160.3368" y2="432.9215" gradientTransform="matrix(147.7263 0 0 -198.7057 23770.3145 86080.6328)">
						<stop  offset="0" style="stop-color:#29CDFF"/>
						<stop  offset="0.3786" style="stop-color:#148EFF"/>
						<stop  offset="1" style="stop-color:#0A60FF"/>
					</linearGradient>
					<path id="Shape_1_" class="st2" d="M88.8,21.8L74.2,36.4c-0.8,0.8-0.8,2,0,2.8l14.6,14.5c0.8,0.8,2,0.8,2.8,0l6.1-6.1
						c0.7-0.7,0.7-1.8,0-2.5c-0.7-0.7-1.8-0.7-2.5,0l-4.6,4.6c-0.2,0.2-0.5,0.2-0.7,0L78.2,38.1c-0.2-0.2-0.2-0.5,0-0.7l11.6-11.6
						c0.5-0.4,1.3-1.3,2.4-1.5c0.9-0.1,1.8,0.2,2.8,1c-0.7-0.7-1.9-1.9-3.5-3.5C90.8,21,89.5,21.1,88.8,21.8z"/>
				</g>
				
					<linearGradient id="Shape_5_" gradientUnits="userSpaceOnUse" x1="-159.6452" y1="430.8019" x2="-159.7334" y2="430.5848" gradientTransform="matrix(49.2049 0 0 -77.4363 7959.4751 33389.3594)">
					<stop  offset="0" style="stop-color:#FA816E"/>
					<stop  offset="0.4147" style="stop-color:#F74A5C"/>
					<stop  offset="1" style="stop-color:#F51D2C"/>
				</linearGradient>
				<path id="Shape_2_" class="st3" d="M99.1,43.8c0.7,0.7,1.8,0.7,2.5,0l4.5-4.5c0.8-0.8,0.8-2,0-2.8l-4.5-4.5
					c-0.7-0.7-1.8-0.7-2.5,0c-0.7,0.7-0.7,1.8,0,2.5l3.1,3.1c0.2,0.2,0.2,0.5,0,0.7l-3,3C98.4,41.9,98.4,43.1,99.1,43.8z"/>
			</g>
			
				<linearGradient id="Combined-Shape_1_" gradientUnits="userSpaceOnUse" x1="-158.2501" y1="428.3985" x2="-158.3129" y2="428.1476" gradientTransform="matrix(47.2004 0 0 -47.1616 7561.3818 20235.1387)">
				<stop  offset="0" style="stop-color:#FA8E7D"/>
				<stop  offset="0.5126" style="stop-color:#F74A5C"/>
				<stop  offset="1" style="stop-color:#F51D2C"/>
			</linearGradient>
			<ellipse id="Combined-Shape" class="st4" cx="90.2" cy="37.9" rx="3.9" ry="3.9"/>
		</g>
	</g>
</g>
</svg>
